# xmcd
#
# Track frame offsets:
#	150
#	20620
#	33628
#	51650
#	63807
#	78450
#	94942
#	112275
#	127687
#
# Disc length: 1844 seconds
#
# Revision: 1
# Processed by: cddbd v1.5.1PL0 Copyright (c) Steve Scherf et al.
# Submitted via: audiograbber 1.83.01
#
DISCID=7a073209
DTITLE=T Bones - 5 Days Gone
DYEAR=1997
DGENRE=Country
TTITLE0=I Don't Mind
TTITLE1=16th Storey
TTITLE2=Blood Simple
TTITLE3=Stainless Steel
TTITLE4=Weary Blues
TTITLE5=Country Boy
TTITLE6=5 Days Gone
TTITLE7=One Day
TTITLE8=Out On The Sandbar
EXTD=
EXTT0=
EXTT1=
EXTT2=
EXTT3=
EXTT4=
EXTT5=
EXTT6=
EXTT7=
EXTT8=
PLAYORDER=
